<?xml version="1.0" encoding="UTF-8" standalone="no"?>
<svg width="513px" height="512px" viewBox="0 0 513 512" version="1.1" xmlns="http://www.w3.org/2000/svg" xmlns:xlink="http://www.w3.org/1999/xlink" xmlns:sketch="http://www.bohemiancoding.com/sketch/ns">
    <!-- Generator: Sketch 3.3.2 (12043) - http://www.bohemiancoding.com/sketch -->
    <title>Untitled 2</title>
    <desc>Created with Sketch.</desc>
    <defs></defs>
    <g id="Page-1" stroke="none" stroke-width="1" fill="none" fill-rule="evenodd" sketch:type="MSPage">
        <g id="tripadvisor" sketch:type="MSLayerGroup">
            <rect id="rect2984" fill="#589541" sketch:type="MSShapeGroup" x="1.5e-05" y="0" width="512" height="512" rx="64"></rect>
            <path d="M256.00002,135.99156 C202.66421,135.99156 162.65457,149.34546 122.65269,189.34733 L56,189.34733 C56,189.34733 56.01,209.35813 82.67786,216.02513 C70.73063,232.43923 56,260.82343 56,282.67773 C56,337.68043 94.32796,376.00844 149.33055,376.00844 C180.53201,376.00844 211.06801,358.47264 229.32221,335.99163 L256.00002,376.00844 L282.67792,335.99163 C300.93202,358.47264 331.46802,376.00844 362.66952,376.00844 C417.65872,376.00844 456.00003,337.68033 456.00003,282.67773 C456.00003,260.82343 441.26943,232.45263 429.32223,216.02513 C455.99013,209.35813 456.00003,189.34733 456.00003,189.34733 L389.34732,189.34733 C349.34552,149.34546 309.33582,135.99156 256.00002,135.99156 L256.00002,135.99156 Z M256.00002,149.33056 C322.66982,149.33056 362.66952,189.34733 362.66952,189.34733 C309.33372,189.34733 256.00002,256.02483 256.00002,322.69473 C256.00002,256.02473 202.66641,189.34733 149.33055,189.34733 C149.33055,189.34733 189.33021,149.33056 256.00002,149.33056 L256.00002,149.33056 Z M149.33055,216.02513 C186.14561,216.02513 215.98321,245.86273 215.98321,282.67773 C215.98321,319.50633 186.14561,349.33054 149.33055,349.33054 C112.51548,349.33054 82.67786,319.50633 82.67786,282.67773 C82.67786,245.86273 112.51548,216.02513 149.33055,216.02513 L149.33055,216.02513 Z M362.66952,216.02513 C399.49792,216.02513 429.32223,245.86273 429.32223,282.67773 C429.32223,319.50633 399.49792,349.33054 362.66952,349.33054 C325.84112,349.33054 296.01682,319.50633 296.01682,282.67773 C296.01682,245.86273 325.84112,216.02513 362.66952,216.02513 L362.66952,216.02513 Z M149.33055,242.66113 C127.23617,242.66113 109.31376,260.58353 109.31376,282.67773 C109.31376,304.78553 127.23617,322.69473 149.33055,322.69473 C171.42491,322.69473 189.34731,304.78553 189.34731,282.67773 C189.34731,260.58353 171.42491,242.66113 149.33055,242.66113 L149.33055,242.66113 Z M362.66952,242.66113 C340.58852,242.66113 322.65272,260.59693 322.65272,282.67773 C322.65272,304.78553 340.58852,322.69473 362.66952,322.69473 C384.75052,322.69473 402.68632,304.78553 402.68632,282.67773 C402.68632,260.59693 384.75052,242.66113 362.66952,242.66113 L362.66952,242.66113 Z M149.33055,255.99993 C164.05123,255.99993 176.00841,267.95713 176.00841,282.67773 C176.00841,297.41203 164.05123,309.35563 149.33055,309.35563 C134.60985,309.35563 122.65269,297.41203 122.65269,282.67773 C122.65269,267.95723 134.60985,255.99993 149.33055,255.99993 L149.33055,255.99993 Z M362.66952,255.99993 C377.39022,255.99993 389.34732,267.95713 389.34732,282.67773 C389.34732,297.41203 377.39022,309.35563 362.66952,309.35563 C347.94882,309.35563 335.99162,297.41203 335.99162,282.67773 C335.99162,267.95723 347.94882,255.99993 362.66952,255.99993 L362.66952,255.99993 Z M149.33055,269.33893 C141.9664,269.33893 135.99162,275.31373 135.99162,282.67773 C135.99162,290.04193 141.9664,296.01683 149.33055,296.01683 C156.69469,296.01683 162.66947,290.04193 162.66947,282.67773 C162.66947,275.31373 156.69469,269.33893 149.33055,269.33893 L149.33055,269.33893 Z M362.66952,269.33893 C355.30532,269.33893 349.33062,275.31373 349.33062,282.67773 C349.33062,290.04193 355.30532,296.01683 362.66952,296.01683 C370.03362,296.01683 376.00842,290.04193 376.00842,282.67773 C376.00842,275.31373 370.03362,269.33893 362.66952,269.33893 L362.66952,269.33893 Z" id="Bird_1_" fill="#FFFFFF" sketch:type="MSShapeGroup"></path>
        </g>
    </g>
</svg>